HIERARCHY
ROOT Hips
{
	OFFSET 0.000000 0.000000 0.000000 
	CHANNELS 6 Xposition Yposition Zposition Zrotation Yrotation Xrotation
	JOINT LeftUpLeg
	{
		OFFSET 1.363060 -1.794630 0.839290 
		CHANNELS 3 Zrotation Yrotation Xrotation
		JOINT LeftLeg
		{
			OFFSET 2.448110 -6.726130 0.000000 
			CHANNELS 3 Zrotation Yrotation Xrotation
			JOINT LeftFoot
			{
				OFFSET 2.562200 -7.039590 0.000000 
				CHANNELS 3 Zrotation Yrotation Xrotation
				JOINT LeftToeBase
				{
					OFFSET 0.157640 -0.433110 2.322550 
					CHANNELS 3 Zrotation Yrotation Xrotation
					End Site
					{
						OFFSET 0.000000 0.000000 0.000000 
					}
				}
			}
		}
	}
	JOINT RightUpLeg
	{
		OFFSET -1.305520 -1.794630 0.839290 
		CHANNELS 3 Zrotation Yrotation Xrotation
		JOINT RightLeg
		{
			OFFSET -2.542530 -6.985550 0.000000 
			CHANNELS 3 Zrotation Yrotation Xrotation
			JOINT RightFoot
			{
				OFFSET -2.568260 -7.056230 0.000000 
				CHANNELS 3 Zrotation Yrotation Xrotation
				JOINT RightToeBase
				{
					OFFSET -0.164730 -0.452590 2.363150 
					CHANNELS 3 Zrotation Yrotation Xrotation
					End Site
					{
						OFFSET 0.000000 0.000000 0.000000 
					}
				}
			}
		}
	}
	JOINT Spine
	{
		OFFSET 0.028270 2.035590 -0.193380 
		CHANNELS 3 Zrotation Yrotation Xrotation
		JOINT Spine1
		{
			OFFSET 0.056720 2.048850 -0.042750 
			CHANNELS 3 Zrotation Yrotation Xrotation
			JOINT Neck1
			{
				OFFSET -0.054170 1.746240 0.172020 
				CHANNELS 3 Zrotation Yrotation Xrotation
				JOINT Head
				{
					OFFSET 0.104070 1.761360 -0.123970 
					CHANNELS 3 Zrotation Yrotation Xrotation
					End Site
					{
						OFFSET 0.000000 0.000000 0.000000 
					}
				}
			}
			JOINT LeftArm
			{
				OFFSET 3.362410 1.200890 -0.311210 
				CHANNELS 3 Zrotation Yrotation Xrotation
				JOINT LeftForeArm
				{
					OFFSET 4.983000 -0.000000 -0.000000 
					CHANNELS 3 Zrotation Yrotation Xrotation
					JOINT LeftHand
					{
						OFFSET 3.483560 -0.000000 -0.000000 
						CHANNELS 3 Zrotation Yrotation Xrotation
						JOINT LeftHandIndex1
						{
							OFFSET 0.715260 -0.000000 -0.000000 
							CHANNELS 3 Zrotation Yrotation Xrotation
							End Site
							{
								OFFSET 0.000000 0.000000 0.000000 
							}
						}
					}
				}
			}
			JOINT RightArm
			{
				OFFSET -3.136600 1.374050 -0.404650 
				CHANNELS 3 Zrotation Yrotation Xrotation
				JOINT RightForeArm
				{
					OFFSET -5.241900 -0.000000 -0.000000 
					CHANNELS 3 Zrotation Yrotation Xrotation
					JOINT RightHand
					{
						OFFSET -3.444170 -0.000000 -0.000000 
						CHANNELS 3 Zrotation Yrotation Xrotation
						JOINT RightHandIndex1
						{
							OFFSET -0.622530 -0.000000 -0.000000 
							CHANNELS 3 Zrotation Yrotation Xrotation
							End Site
							{
								OFFSET 0.000000 0.000000 0.000000 
							}
						}
					}
				}
			}
		}
	}
}
MOTION
Frames: 6
Frame Time: 0.041667
33.154538 17.229700 13.726503 -179.468402 -32.672450 175.821276 -7.519080 13.382997 -16.050423 3.083724 12.732760 37.138989 -1.439184 7.175027 -3.073984 1.106600 -6.683600 -18.781400 15.901624 -5.760385 -7.315687 -1.657175 -11.320440 33.062893 4.648004 -17.387051 -13.214538 -1.052900 6.524800 -18.315100 0.423946 2.151663 -2.231209 2.168509 0.600650 6.323725 3.621701 2.340690 8.987267 6.307600 1.774900 -0.525300 -89.501103 -3.960170 18.295518 4.661266 -19.333522 -1.912269 -1.019035 -0.809938 -3.184387 -7.125000 0.000000 0.000000 87.002666 3.137053 16.127723 -6.510001 19.973487 -2.447576 0.312525 -1.904025 17.279080 7.125000 0.000000 0.000000 
33.120944 17.223818 13.709988 -179.361403 -32.428880 175.834326 -7.481955 13.485397 -16.075439 3.136044 12.778981 37.328509 -1.416316 7.122014 -3.381449 1.087200 -6.626800 -18.614200 15.930250 -5.686530 -7.343424 -1.673602 -11.358092 33.184747 4.570115 -17.203785 -13.355843 -1.077500 6.598200 -18.530200 0.427778 2.148052 -2.237946 2.143780 0.597078 6.282601 3.579070 2.472960 8.977876 6.246500 1.838200 -0.487500 -89.306778 -3.600216 19.581116 5.258548 -20.215629 -2.096259 -1.019914 -0.859035 -4.521648 -7.125000 0.000000 0.000000 87.003439 3.127751 16.038562 -6.490260 19.937270 -2.442332 0.305642 -1.908353 17.553214 7.125000 0.000000 0.000000 
33.084408 17.218049 13.693474 -179.409441 -32.186480 175.868265 -7.576561 13.616263 -16.071076 3.198686 12.847570 37.588779 -1.394598 7.076646 -3.751631 1.082700 -6.613500 -18.575200 15.776701 -5.692869 -7.346956 -1.694264 -11.396865 33.362363 4.230634 -16.311282 -13.650770 -0.933600 6.154700 -17.233900 0.433365 2.126672 -2.248338 2.230393 0.572836 6.202696 3.549917 2.727571 9.030047 6.197800 1.954700 -0.395800 -89.221665 -3.160938 21.022677 5.809517 -21.044431 -2.272543 -1.036284 -0.895988 -5.109006 -7.125000 0.000000 0.000000 86.876345 3.050628 16.115924 -6.511246 19.953300 -2.451011 0.282134 -1.907409 17.734136 7.125000 0.000000 0.000000 
33.046629 17.205494 13.676733 -179.522897 -31.973587 175.951082 -7.740103 13.645336 -16.076103 3.267525 12.939701 37.908386 -1.414090 7.154519 -4.216865 1.109300 -6.691500 -18.804500 15.554028 -5.761503 -7.371417 -1.725537 -11.418945 33.474870 4.094569 -15.916518 -13.630626 -0.902600 6.054600 -16.942900 0.432959 2.099107 -2.261083 2.241671 0.552726 6.090696 3.441900 2.945786 9.117082 6.062500 2.045800 -0.292900 -89.029402 -2.679963 21.701751 6.445023 -21.937067 -2.483313 -1.013603 -0.919174 -6.379781 -7.125000 0.000000 0.000000 86.720246 2.909820 16.459548 -6.574306 20.041860 -2.470370 0.282459 -1.901760 17.471506 7.125000 0.000000 0.000000 
33.005569 17.175519 13.662594 -179.360052 -31.682256 175.943315 -7.664996 13.680464 -16.186569 3.372619 13.052197 38.311332 -1.382093 7.088183 -4.617894 1.071600 -6.580500 -18.478400 15.580127 -6.295586 -7.708804 -1.832412 -11.441537 33.458312 5.074142 -18.429309 -12.460954 -1.906000 8.667500 -24.760700 0.444045 2.094404 -2.266282 2.264474 0.549192 6.002351 3.361652 3.013050 9.102058 5.989900 2.077900 -0.312000 -88.763721 -2.178858 22.640018 7.237297 -23.027841 -2.757019 -1.001417 -0.951282 -7.727820 -7.125000 0.000000 0.000000 86.510248 2.823829 16.969470 -6.649941 20.151261 -2.488992 0.315960 -1.895938 16.797838 7.125000 0.000000 0.000000 
32.962134 17.163869 13.647890 -178.966629 -31.403930 175.823184 -7.411746 13.799995 -16.300780 3.491858 13.150311 38.703367 -1.299247 6.875468 -4.924495 1.017100 -6.416400 -17.997400 15.807935 -6.378175 -7.770718 -1.826897 -11.462707 33.530465 4.862400 -17.864648 -12.534004 -1.824800 8.491300 -24.216500 0.461387 2.079111 -2.269421 2.216924 0.550550 5.957399 3.376142 3.101766 9.046578 6.026000 2.128300 -0.344100 -88.476209 -1.738715 23.333171 8.002512 -24.034145 -3.034775 -0.981668 -0.994097 -8.149184 -7.125000 0.000000 0.000000 86.347637 2.797400 17.357383 -6.723477 20.266246 -2.511702 0.345793 -1.885385 16.124465 7.125000 0.000000 0.000000 
